<?xml version="1.0" encoding="UTF-8"?>
<svg id="Layer_1" data-name="Layer 1" xmlns="http://www.w3.org/2000/svg" viewBox="0 0 472.01 476.29">
  <rect x="67.67" y="27.84" width="340.09" height="417.61" style="fill: #231f20;"/>
  <path d="m42.4,0h364.07l65.53,66.82v346.51l-60.82,62.96H56.11L0,423.18V44.97L42.4,0Zm49.26,66.39v338.8c0,12.06,9.78,21.84,21.84,21.84h251c12.06,0,21.84-9.78,21.84-21.84V66.39c0-12.06-9.78-21.84-21.84-21.84H113.51c-12.06,0-21.84,9.78-21.84,21.84Z" style="fill: #939598; stroke: #231f20; stroke-miterlimit: 10;"/>
  <text transform="translate(211.74 66.19)" style="fill: #fff; font-family: MyriadPro-Regular, &apos;Myriad Pro&apos;; font-size: 30.8px;"><tspan x="0" y="0">CHR</tspan></text>
  <text transform="translate(209.87 194.26)" style="fill: #fff; font-family: MyriadPro-Regular, &apos;Myriad Pro&apos;; font-size: 30.8px;"><tspan x="0" y="0">U</tspan><tspan x="19.93" y="0" style="letter-spacing: -.03em;">T</tspan><tspan x="34.41" y="0">C</tspan></text>
  <text transform="translate(220.53 425.98)" style="fill: #fff; font-family: MyriadPro-Regular, &apos;Myriad Pro&apos;; font-size: 30.8px;"><tspan x="0" y="0" style="letter-spacing: .02em;">E</tspan><tspan x="15.65" y="0">T</tspan></text>
  <text transform="translate(177.29 162.91)" style="fill: #939598; font-family: MyriadPro-Regular, &apos;Myriad Pro&apos;; font-size: 15.9px;"><tspan x="0" y="0">MIN</tspan></text>
  <text transform="translate(268.75 162.91)" style="fill: #939598; font-family: MyriadPro-Regular, &apos;Myriad Pro&apos;; font-size: 15.9px;"><tspan x="0" y="0">SEC</tspan></text>
  <text transform="translate(124.57 291.09)" style="fill: #939598; font-family: MyriadPro-Regular, &apos;Myriad Pro&apos;; font-size: 15.9px;"><tspan x="0" y="0">HR/MO</tspan></text>
  <text transform="translate(216.82 291.09)" style="fill: #939598; font-family: MyriadPro-Regular, &apos;Myriad Pro&apos;; font-size: 15.9px;"><tspan x="0" y="0">MIN/</tspan><tspan x="32.5" y="0" style="letter-spacing: -.03em;">D</tspan><tspan x="42.64" y="0">Y</tspan></text>
  <text transform="translate(307.34 291.78)" style="fill: #939598; font-family: MyriadPro-Regular, &apos;Myriad Pro&apos;; font-size: 15.9px;"><tspan x="0" y="0">SEC/Y</tspan></text>
  <text transform="translate(181.83 416.51)" style="fill: #939598; font-family: MyriadPro-Regular, &apos;Myriad Pro&apos;; font-size: 15.9px;"><tspan x="0" y="0">HR</tspan></text>
  <text transform="translate(267.67 416.51)" style="fill: #939598; font-family: MyriadPro-Regular, &apos;Myriad Pro&apos;; font-size: 15.9px;"><tspan x="0" y="0">MIN</tspan></text>
  <text transform="translate(10.53 100.98)" style="fill: #fff; font-family: MyriadPro-Regular, &apos;Myriad Pro&apos;; font-size: 30.8px;"><tspan x="0" y="0" style="letter-spacing: .02em;"></tspan><tspan x="15.65" y="0">RST</tspan></text>
<text transform="translate(0.53 300.98)" style="fill: #fff; font-family: MyriadPro-Regular, &apos;Myriad Pro&apos;; font-size: 30.8px;"><tspan x="0" y="0" style="letter-spacing: .02em;"></tspan><tspan x="15.65" y="0">DATE</tspan></text>
<text transform="translate(385 100.98)" style="fill: #fff; font-family: MyriadPro-Regular, &apos;Myriad Pro&apos;; font-size: 30.8px;"><tspan x="0" y="0" style="letter-spacing: .02em;"></tspan><tspan x="15.65" y="0">CHR</tspan></text>
<text transform="translate(385 200.98)" style="fill: #fff; font-family: MyriadPro-Regular, &apos;Myriad Pro&apos;; font-size: 20.8px;"><tspan x="0" y="0" style="letter-spacing: .02em;"></tspan><tspan x="15.65" y="0">GPS</tspan></text>
<text transform="translate(420 225.98)" style="fill: #fff; font-family: MyriadPro-Regular, &apos;Myriad Pro&apos;; font-size: 20.8px;"><tspan x="0" y="0" style="letter-spacing: .02em;"></tspan><tspan x="15.65" y="0">INT</tspan></text>
<text transform="translate(410 260.98)" style="fill: #fff; font-family: MyriadPro-Regular, &apos;Myriad Pro&apos;; font-size: 20.8px;"><tspan x="0" y="0" style="letter-spacing: .02em;"></tspan><tspan x="15.65" y="0">SET</tspan></text>
<text transform="translate(385 200.98)" style="fill: #fff; font-family: MyriadPro-Regular, &apos;Myriad Pro&apos;; font-size: 20.8px;"><tspan x="0" y="0" style="letter-spacing: .02em;"></tspan><tspan x="15.65" y="0">GPS</tspan></text>


<text transform="translate(385 320.98)" style="fill: #fff; font-family: MyriadPro-Regular, &apos;Myriad Pro&apos;; font-size: 20.8px;"><tspan x="0" y="0" style="letter-spacing: .02em;"></tspan><tspan x="15.65" y="0">AUTO</tspan></text>
<text transform="translate(420 360.98)" style="fill: #fff; font-family: MyriadPro-Regular, &apos;Myriad Pro&apos;; font-size: 20.8px;"><tspan x="0" y="0" style="letter-spacing: .02em;"></tspan><tspan x="15.65" y="0">RST</tspan></text>




</svg>